HIERARCHY
ROOT Hips
{
	OFFSET 0.00000 0.00000 0.00000
	CHANNELS 6 Xposition Yposition Zposition Zrotation Yrotation Xrotation 
	JOINT LHipJoint
	{
		OFFSET 0 0 0
		CHANNELS 3 Zrotation Yrotation Xrotation
		JOINT LeftUpLeg
		{
			OFFSET 1.64549 -1.70879 0.84566
			CHANNELS 3 Zrotation Yrotation Xrotation
			JOINT LeftLeg
			{
				OFFSET 2.24963 -6.18082 0.00000
				CHANNELS 3 Zrotation Yrotation Xrotation
				JOINT LeftFoot
				{
					OFFSET 2.71775 -7.46697 0.00000
					CHANNELS 3 Zrotation Yrotation Xrotation
					JOINT LeftToeBase
					{
						OFFSET 0.18768 -0.51564 2.24737
						CHANNELS 3 Zrotation Yrotation Xrotation
						End Site
						{
							OFFSET 0.00000 -0.00000 1.15935
						}
					}
				}
			}
		}
	}
	JOINT RHipJoint
	{
		OFFSET 0 0 0
		CHANNELS 3 Zrotation Yrotation Xrotation
		JOINT RightUpLeg
		{
			OFFSET -1.58830 -1.70879 0.84566
			CHANNELS 3 Zrotation Yrotation Xrotation
			JOINT RightLeg
			{
				OFFSET -2.25006 -6.18201 0.00000
				CHANNELS 3 Zrotation Yrotation Xrotation
				JOINT RightFoot
				{
					OFFSET -2.72829 -7.49593 0.00000
					CHANNELS 3 Zrotation Yrotation Xrotation
					JOINT RightToeBase
					{
						OFFSET -0.21541 -0.59185 2.10643
						CHANNELS 3 Zrotation Yrotation Xrotation
						End Site
						{
							OFFSET -0.00000 -0.00000 1.09838
						}
					}
				}
			}
		}
	}
	JOINT LowerBack
	{
		OFFSET 0 0 0
		CHANNELS 3 Zrotation Yrotation Xrotation
		JOINT Spine
		{
			OFFSET 0.03142 2.10496 -0.11038
			CHANNELS 3 Zrotation Yrotation Xrotation
			JOINT Spine1
			{
				OFFSET -0.01863 2.10897 -0.06956
				CHANNELS 3 Zrotation Yrotation Xrotation
				JOINT Neck
				{
					OFFSET 0 0 0
					CHANNELS 3 Zrotation Yrotation Xrotation
					JOINT Neck1
					{
						OFFSET -0.02267 1.73238 0.00451
						CHANNELS 3 Zrotation Yrotation Xrotation
						JOINT Head
						{
							OFFSET -0.05808 1.54724 -0.61749
							CHANNELS 3 Zrotation Yrotation Xrotation
							End Site
							{
								OFFSET -0.01396 1.71468 -0.21082
							}
						}
					}
				}
				JOINT LeftShoulder
				{
					OFFSET 0 0 0
					CHANNELS 3 Zrotation Yrotation Xrotation
					JOINT LeftArm
					{
						OFFSET 3.44898 0.50298 0.21920
						CHANNELS 3 Zrotation Yrotation Xrotation
						JOINT LeftForeArm
						{
							OFFSET 5.41917 -0.00000 -0.00000
							CHANNELS 3 Zrotation Yrotation Xrotation
							JOINT LeftHand
							{
								OFFSET 2.44373 -0.00000 0.00000
								CHANNELS 3 Zrotation Yrotation Xrotation
								JOINT LeftFingerBase
								{
									OFFSET 0 0 0
									CHANNELS 3 Zrotation Yrotation Xrotation
									JOINT LeftHandIndex1
									{
										OFFSET 0.72750 -0.00000 0.00000
										CHANNELS 3 Zrotation Yrotation Xrotation
										End Site
										{
											OFFSET 0.58653 -0.00000 0.00000
										}
									}
								}
								JOINT LThumb
								{
									OFFSET 0 0 0
									CHANNELS 3 Zrotation Yrotation Xrotation
									End Site
									{
										OFFSET 0.59549 -0.00000 0.59549
									}
								}
							}
						}
					}
				}
				JOINT RightShoulder
				{
					OFFSET 0 0 0
					CHANNELS 3 Zrotation Yrotation Xrotation
					JOINT RightArm
					{
						OFFSET -3.23015 0.55830 0.31051
						CHANNELS 3 Zrotation Yrotation Xrotation
						JOINT RightForeArm
						{
							OFFSET -5.58976 -0.00010 0.00014
							CHANNELS 3 Zrotation Yrotation Xrotation
							JOINT RightHand
							{
								OFFSET -2.48060 -0.00000 0.00000
								CHANNELS 3 Zrotation Yrotation Xrotation
								JOINT RightFingerBase
								{
									OFFSET 0 0 0
									CHANNELS 3 Zrotation Yrotation Xrotation
									JOINT RightHandIndex1
									{
										OFFSET -0.81601 -0.00000 0.00000
										CHANNELS 3 Zrotation Yrotation Xrotation
										End Site
										{
											OFFSET -0.65789 -0.00000 0.00000
										}
									}
								}
								JOINT RThumb
								{
									OFFSET 0 0 0
									CHANNELS 3 Zrotation Yrotation Xrotation
									End Site
									{
										OFFSET -0.66793 -0.00000 0.66793
									}
								}
							}
						}
					}
				}
			}
		}
	}
}
MOTION
Frames: 6
Frame Time: .0083333
-0.1265 16.5250 12.5446 -186.7430 -21.1812 -154.9680 0.0000 0.0000 0.0000 -7.5885 2.7608 -3.8969 2.5879 9.9960 28.9637 1.3631 16.4151 22.3263 1.6919 -8.1925 -23.3002 0.0000 0.0000 0.0000 22.4365 5.4063 -56.8056 -6.1408 -14.5634 45.5440 -4.3881 -21.6704 -50.6807 -6.3647 -14.7727 46.4284 1.5367 -1.6066 -10.2538 -2.2153 -3.2734 -8.6198 -3.3671 -2.2153 -3.4792 -13.4285 -10.4834 -11.5554 10.9298 -18.0535 27.9620 3.3328 -8.9448 13.6299 0.0000 0.0000 0.0000 -7.0094 -9.3236 -8.0616 9.5345 -16.0082 -1.3437 -0.0000 -0.0000 43.1786 -2.9201 24.6137 -1.2171 -7.1250 0.0000 -0.0000 -32.4045 51.5294 -5.7163 0.0000 0.0000 0.0000 11.7411 7.2668 -19.5027 -10.0015 16.7420 -1.4754 0.0000 0.0000 1.0928 -6.5109 5.1274 -0.5844 7.1250 -0.0000 -0.0000 14.9695 -24.8011 7.5583
-0.1014 16.5396 12.4529 -186.8220 -19.9313 -155.7360 0.0000 0.0000 0.0000 -6.8510 1.7800 -3.2043 2.6040 10.0246 29.0565 1.2149 15.1067 20.9463 2.3868 -9.6291 -27.7839 0.0000 0.0000 0.0000 22.0351 6.2580 -55.2075 -6.1138 -14.5378 45.4369 -4.6460 -21.0156 -51.1296 -6.5267 -14.9200 47.0607 1.1039 -1.9062 -9.2478 -2.3117 -3.7057 -8.9561 -3.1807 -2.4473 -4.4023 -13.1242 -9.7760 -11.2108 10.8558 -17.4124 28.6023 3.4018 -8.7361 13.6825 0.0000 0.0000 0.0000 -7.0144 -9.2766 -7.3181 9.5117 -15.9722 -1.3374 -0.0000 -0.0000 44.9597 -1.9033 22.6021 -0.7317 -7.1250 0.0000 -0.0000 -30.2456 49.9655 -4.0295 0.0000 0.0000 0.0000 11.6627 5.9264 -19.8260 -9.8158 16.4510 -1.4223 0.0000 0.0000 3.5679 -6.2794 5.2859 -0.5808 7.1250 -0.0000 -0.0000 15.1203 -24.6486 7.6955
-0.0752 16.5432 12.3627 -186.8320 -18.6506 -156.4520 0.0000 0.0000 0.0000 -6.0446 0.9110 -2.4962 2.5561 9.9393 28.7803 0.8571 15.0327 18.3129 2.0980 -9.0672 -26.0058 0.0000 0.0000 0.0000 21.9607 7.0245 -53.7101 -6.0731 -14.4988 45.2744 -4.7629 -20.7180 -51.3367 -6.5606 -14.9504 47.1921 0.5333 -2.1566 -9.2130 -2.3599 -3.9962 -8.7651 -2.9309 -2.5552 -4.2023 -12.8983 -9.2521 -10.6777 11.0799 -16.9485 28.6057 3.5723 -8.5633 13.4958 -0.0000 0.0000 0.0000 -6.8795 -9.4187 -4.6780 9.7885 -16.4081 -1.4146 -0.0000 -0.0000 43.6098 -1.7479 22.4444 -0.6675 -7.1250 0.0000 -0.0000 -30.0149 49.8526 -3.9041 -0.0000 0.0000 0.0000 11.4517 4.5493 -20.0528 -9.7493 16.3464 -1.4036 0.0000 0.0000 4.8772 -6.1280 5.2945 -0.5676 7.1250 -0.0000 -0.0000 15.2294 -24.6412 7.7577
-0.0548 16.5534 12.2733 -186.7750 -17.5407 -157.2070 0.0000 0.0000 0.0000 -5.1345 0.0582 -1.7665 2.4451 9.7375 28.1306 0.3630 15.7777 14.5765 1.3793 -7.4317 -21.0009 0.0000 0.0000 0.0000 22.1658 7.3719 -52.2067 -5.9952 -14.4237 44.9624 -4.8021 -20.4551 -51.3025 -6.5357 -14.9281 47.0958 0.2593 -2.4113 -9.0170 -2.4621 -4.3396 -8.7267 -2.8891 -2.7212 -4.2796 -12.5588 -8.6266 -9.9075 11.2685 -16.4301 28.6649 3.7281 -8.3874 13.2570 -0.0000 0.0000 0.0000 -6.7358 -9.6415 -0.7700 10.2072 -17.0631 -1.5352 -0.0000 -0.0000 40.0012 -2.8907 24.8034 -1.2135 -7.1250 0.0000 -0.0000 -32.5028 51.6952 -5.8787 -0.0000 0.0000 0.0000 11.3878 3.1782 -20.4007 -9.6988 16.2671 -1.3894 0.0000 0.0000 6.3565 -5.8173 5.5173 -0.5612 7.1250 -0.0000 -0.0000 15.4296 -24.4271 7.9469
-0.0230 16.5704 12.1870 -186.6570 -16.3966 -157.8700 0.0000 0.0000 0.0000 -4.1450 -0.6629 -1.3668 2.3108 9.4854 27.3258 0.0535 15.6716 11.5675 1.5985 -7.9742 -22.6358 0.0000 0.0000 0.0000 22.2526 8.0330 -50.6786 -5.8713 -14.3025 44.4631 -4.8504 -20.2543 -51.3408 -6.5396 -14.9316 47.1108 -0.0401 -2.6890 -8.7295 -2.5275 -4.7355 -8.7975 -2.7839 -2.9197 -4.5207 -12.0333 -7.9138 -9.4803 11.2377 -15.7653 29.0239 3.7726 -8.1381 13.1543 -0.0000 -0.0000 0.0000 -6.7303 -9.7821 0.3874 10.1868 -17.0313 -1.5292 -0.0000 -0.0000 39.9323 -3.1572 24.0199 -1.2862 -7.1250 0.0000 -0.0000 -32.2337 50.9857 -5.2188 -0.0000 -0.0000 0.0000 11.3352 1.8517 -20.0053 -9.7631 16.3681 -1.4074 0.0000 0.0000 7.0192 -5.4463 5.7229 -0.5447 7.1250 -0.0000 -0.0000 15.6745 -24.2305 8.1571
0.0155 16.5882 12.1074 -186.6820 -15.0234 -158.2970 0.0000 0.0000 0.0000 -3.4185 -1.2181 -1.1987 2.1486 9.1690 26.3256 -0.4081 16.6785 7.0801 1.1222 -6.7290 -18.9150 0.0000 0.0000 0.0000 22.0451 8.9581 -49.3697 -5.7226 -14.1541 43.8582 -4.6149 -20.8070 -50.8857 -6.4461 -14.8471 46.7468 -0.5366 -2.9326 -8.6443 -2.6595 -5.0586 -8.7178 -2.6556 -3.0658 -4.4733 -11.3860 -7.3415 -9.6825 11.2537 -15.2305 29.4196 3.7569 -7.8763 13.2211 -0.0000 0.0000 0.0000 -6.6440 -9.9514 1.8844 10.3959 -17.3564 -1.5910 -0.0000 -0.0000 37.9227 -4.1757 24.2960 -1.7206 -7.1250 0.0000 -0.0000 -33.3203 51.0547 -5.4924 -0.0000 0.0000 0.0000 11.3964 0.8191 -20.5644 -9.7661 16.3728 -1.4083 0.0000 0.0000 7.8258 -5.1203 6.2865 -0.5622 7.1250 -0.0000 -0.0000 15.8450 -23.6882 8.4601
